# xmcd CD database file
#
# Track frame offsets:
#	150
#	21312
#	41867
#	64655
#	86755
#	111452
#	132507
#	155505
#	176217
#	198297
#	220150
#	237390
#
# Disc length: 3499 seconds
#
# Revision: 0
# Processed by: cddbd v1.5.1PL0 Copyright (c) Steve Scherf et al.
# Submitted via: CDex 1.60beta1
#
DISCID=b50da90c
DTITLE=Najee - Classic Masters
DYEAR=2003
DGENRE=Jazz
TTITLE0=Sweet Love
TTITLE1=Najee's Theme
TTITLE2=Day by Day
TTITLE3=Najee's Nasty Groove
TTITLE4=I Adore Mi Amor
TTITLE5=All I Ever Ask
TTITLE6=Noah's Ark
TTITLE7=Tokyo Blue
TTITLE8=My Old Friend
TTITLE9=Laid Back
TTITLE10=I Wish
TTITLE11=Knocks Me Off My Feet
EXTD=YEAR: 2003
EXTT0=
EXTT1=
EXTT2=
EXTT3=
EXTT4=
EXTT5=
EXTT6=
EXTT7=
EXTT8=
EXTT9=
EXTT10=
EXTT11=
PLAYORDER=
